<svg width="60" height="60" viewBox="0 0 60 60" fill="none" xmlns="http://www.w3.org/2000/svg">
<circle cx="30" cy="30" r="30" fill="#73BA50"/>
<g clip-path="url(#clip0_786_3247)">
<path d="M12.5 9.99979L10 12.4998L15.5 20.2023C15.7315 20.5267 16.0373 20.791 16.3917 20.9732C16.7461 21.1554 17.139 21.2502 17.5375 21.2498H17.7125C18.0412 21.2495 18.3667 21.3141 18.6704 21.4398C18.9742 21.5655 19.2501 21.7498 19.4825 21.9823L26.17 28.6698L19.6275 35.3048C18.5085 34.9754 17.3281 34.9113 16.18 35.1175C15.0319 35.3238 13.9476 35.7948 13.0132 36.4931C12.0789 37.1914 11.3201 38.0978 10.797 39.1405C10.274 40.1831 10.0011 41.3333 10 42.4998C10.0015 43.5746 10.234 44.6366 10.6818 45.6137C11.1295 46.5909 11.7821 47.4604 12.5953 48.1633C13.4084 48.8662 14.3632 49.3861 15.3948 49.6878C16.4264 49.9895 17.5109 50.066 18.5746 49.9119C19.6384 49.7579 20.6566 49.3771 21.5603 48.7952C22.464 48.2133 23.2321 47.4439 23.8125 46.5393C24.3929 45.6346 24.7721 44.6158 24.9244 43.5517C25.0766 42.4877 24.9984 41.4034 24.695 40.3723L31.33 33.8298L33.75 36.2498L32.9875 38.5348C32.841 38.9752 32.82 39.4478 32.9268 39.8995C33.0337 40.3512 33.2642 40.7642 33.5925 41.0923L41.7675 49.2673C41.9991 49.5003 42.2745 49.6851 42.5779 49.8113C42.8812 49.9374 43.2065 50.0024 43.535 50.0024C43.8635 50.0024 44.1888 49.9374 44.4921 49.8113C44.7955 49.6851 45.0709 49.5003 45.3025 49.2673L49.2675 45.3023C49.5005 45.0707 49.6853 44.7953 49.8115 44.4919C49.9376 44.1886 50.0026 43.8633 50.0026 43.5348C50.0026 43.2063 49.9376 42.881 49.8115 42.5777C49.6853 42.2743 49.5005 41.9989 49.2675 41.7673L41.0925 33.5923C40.7644 33.264 40.3514 33.0335 39.8997 32.9266C39.448 32.8198 38.9754 32.8408 38.535 32.9873L36.25 33.7498L33.85 31.3498L40.55 24.7423C41.6615 25.039 42.8262 25.0765 43.9545 24.8518C45.0827 24.6272 46.1443 24.1464 47.0574 23.4467C47.9704 22.7469 48.7106 21.8468 49.2208 20.8157C49.731 19.7846 49.9976 18.6502 50 17.4998C50 16.8273 49.9125 16.1748 49.745 15.5573L44.395 20.9098L40 19.9998L39.09 15.6073L44.4425 10.2548C43.1692 9.91244 41.8282 9.9118 40.5546 10.2529C39.281 10.5941 38.1199 11.2649 37.1882 12.1979C36.2565 13.1308 35.5873 14.2929 35.2479 15.5669C34.9085 16.841 34.9109 18.182 35.255 19.4548L28.655 26.1498L21.9825 19.4823C21.5136 19.0136 21.2501 18.3778 21.25 17.7148V17.5373C21.25 17.1392 21.155 16.7468 20.9728 16.3929C20.7906 16.0389 20.5265 15.7336 20.2025 15.5023L12.5 9.99979ZM36.615 36.6148C36.7311 36.4984 36.8691 36.406 37.0209 36.343C37.1728 36.28 37.3356 36.2476 37.5 36.2476C37.6644 36.2476 37.8272 36.28 37.9791 36.343C38.1309 36.406 38.2689 36.4984 38.385 36.6148L45.67 43.9023C45.8977 44.138 46.0237 44.4538 46.0208 44.7815C46.018 45.1093 45.8865 45.4228 45.6548 45.6546C45.423 45.8863 45.1095 46.0178 44.7817 46.0206C44.454 46.0235 44.1382 45.8975 43.9025 45.6698L36.615 38.3848C36.4986 38.2687 36.4062 38.1307 36.3432 37.9789C36.2802 37.827 36.2478 37.6642 36.2478 37.4998C36.2478 37.3354 36.2802 37.1726 36.3432 37.0207C36.4062 36.8688 36.4986 36.7309 36.615 36.6148ZM17.5 37.4998L18.6775 38.1048L20 38.1698L20.7175 39.2823L21.83 39.9998L21.895 41.3223L22.5 42.4998L21.895 43.6773L21.83 44.9998L20.7175 45.7173L20 46.8298L18.6775 46.8948L17.5 47.4998L16.3225 46.8948L15 46.8298L14.2825 45.7173L13.17 44.9998L13.105 43.6773L12.5 42.4998L13.105 41.3223L13.17 39.9998L14.2825 39.2823L15 38.1698L16.3225 38.1048L17.5 37.4998Z" fill="white"/>
</g>
<defs>
<clipPath id="clip0_786_3247">
<rect width="40" height="40" fill="white" transform="translate(10 10)"/>
</clipPath>
</defs>
</svg>
