<svg width="60" height="60" viewBox="0 0 60 60" fill="none" xmlns="http://www.w3.org/2000/svg">
<circle cx="30" cy="30" r="30" fill="#73BA50"/>
<path d="M50 18.9234C50 17.8828 49.4732 16.8849 48.5355 16.1491C47.5979 15.4134 46.3261 15 45 15H15C13.6739 15 12.4021 15.4134 11.4645 16.1491C10.5268 16.8849 10 17.8828 10 18.9234L10 34.617C10 35.6575 10.5268 36.6554 11.4645 37.3912C12.4021 38.127 13.6739 38.5403 15 38.5403H38.965C39.628 38.5405 40.2638 38.7472 40.7325 39.1151L47.865 44.7118C48.0397 44.8492 48.2624 44.9429 48.5049 44.981C48.7474 45.019 48.9989 44.9998 49.2275 44.9256C49.4561 44.8515 49.6515 44.7258 49.789 44.5645C49.9265 44.4031 49.9999 44.2134 50 44.0194V18.9234ZM18.75 20.8851H41.25C41.5815 20.8851 41.8995 20.9884 42.1339 21.1724C42.3683 21.3563 42.5 21.6058 42.5 21.8659C42.5 22.1261 42.3683 22.3756 42.1339 22.5595C41.8995 22.7434 41.5815 22.8468 41.25 22.8468H18.75C18.4185 22.8468 18.1005 22.7434 17.8661 22.5595C17.6317 22.3756 17.5 22.1261 17.5 21.8659C17.5 21.6058 17.6317 21.3563 17.8661 21.1724C18.1005 20.9884 18.4185 20.8851 18.75 20.8851ZM18.75 25.7893H41.25C41.5815 25.7893 41.8995 25.8927 42.1339 26.0766C42.3683 26.2606 42.5 26.51 42.5 26.7702C42.5 27.0303 42.3683 27.2798 42.1339 27.4637C41.8995 27.6477 41.5815 27.751 41.25 27.751H18.75C18.4185 27.751 18.1005 27.6477 17.8661 27.4637C17.6317 27.2798 17.5 27.0303 17.5 26.7702C17.5 26.51 17.6317 26.2606 17.8661 26.0766C18.1005 25.8927 18.4185 25.7893 18.75 25.7893ZM18.75 30.6936H31.25C31.5815 30.6936 31.8995 30.7969 32.1339 30.9808C32.3683 31.1648 32.5 31.4143 32.5 31.6744C32.5 31.9345 32.3683 32.184 32.1339 32.368C31.8995 32.5519 31.5815 32.6553 31.25 32.6553H18.75C18.4185 32.6553 18.1005 32.5519 17.8661 32.368C17.6317 32.184 17.5 31.9345 17.5 31.6744C17.5 31.4143 17.6317 31.1648 17.8661 30.9808C18.1005 30.7969 18.4185 30.6936 18.75 30.6936Z" fill="white"/>
</svg>
