<svg width="60" height="60" viewBox="0 0 60 60" fill="none" xmlns="http://www.w3.org/2000/svg">
<circle cx="30" cy="30" r="30" fill="#73BA50"/>
<path d="M30 10V20C30 21.1366 30.4741 22.2267 31.318 23.0305C32.1619 23.8342 33.3065 24.2857 34.5 24.2857H45V45.7143C45 46.8509 44.5259 47.941 43.682 48.7447C42.8381 49.5485 41.6935 50 40.5 50H19.5C18.3065 50 17.1619 49.5485 16.318 48.7447C15.4741 47.941 15 46.8509 15 45.7143V14.2857C15 13.1491 15.4741 12.059 16.318 11.2553C17.1619 10.4515 18.3065 10 19.5 10H30ZM33 10.7143V20C33 20.3789 33.158 20.7422 33.4393 21.0102C33.7206 21.2781 34.1022 21.4286 34.5 21.4286H44.25L33 10.7143Z" fill="white"/>
</svg>
