<svg width="60" height="60" viewBox="0 0 60 60" fill="none" xmlns="http://www.w3.org/2000/svg">
<path fill-rule="evenodd" clip-rule="evenodd" d="M30 0C13.425 0 0 13.7646 0 30.7588C0 44.3696 8.5875 55.8657 20.5125 59.9412C22.0125 60.2104 22.575 59.2876 22.575 58.4802C22.575 57.7497 22.5375 55.3274 22.5375 52.7514C15 54.174 13.05 50.8674 12.45 49.1372C12.1125 48.2529 10.65 45.523 9.375 44.7925C8.325 44.2158 6.825 42.7932 9.3375 42.7548C11.7 42.7163 13.3875 44.9848 13.95 45.9075C16.65 50.5598 20.9625 49.2526 22.6875 48.4451C22.95 46.4458 23.7375 45.1001 24.6 44.3311C17.925 43.5622 10.95 40.9092 10.95 29.144C10.95 25.799 12.1125 23.0307 14.025 20.8775C13.725 20.1086 12.675 16.9558 14.325 12.7265C14.325 12.7265 16.8375 11.919 22.575 15.8792C24.975 15.1872 27.525 14.8411 30.075 14.8411C32.625 14.8411 35.175 15.1872 37.575 15.8792C43.3125 11.8806 45.825 12.7265 45.825 12.7265C47.475 16.9558 46.425 20.1086 46.125 20.8775C48.0375 23.0307 49.2 25.7605 49.2 29.144C49.2 40.9477 42.1875 43.5622 35.5125 44.3311C36.6 45.2924 37.5375 47.1379 37.5375 50.0215C37.5375 54.1355 37.5 57.4421 37.5 58.4802C37.5 59.2876 38.0625 60.2488 39.5625 59.9412C45.5179 57.8797 50.6929 53.9553 54.3592 48.7203C58.0254 43.4854 59.9982 37.2035 60 30.7588C60 13.7646 46.575 0 30 0Z" fill="#73BA50"/>
</svg>
