<svg width="60" height="60" viewBox="0 0 60 60" fill="none" xmlns="http://www.w3.org/2000/svg">
<circle cx="30" cy="30" r="30" fill="#73BA50"/>
<path fill-rule="evenodd" clip-rule="evenodd" d="M25.3817 21.615H31.5717V24.6983C32.4633 22.925 34.75 21.3317 38.185 21.3317C44.77 21.3317 46.3333 24.8617 46.3333 31.3383V43.3333H39.6667V32.8133C39.6667 29.125 38.775 27.045 36.505 27.045C33.3567 27.045 32.0483 29.2867 32.0483 32.8117V43.3333H25.3817V21.615ZM13.95 43.05H20.6167V21.3317H13.95V43.05ZM21.5717 14.25C21.5719 14.8088 21.4611 15.3621 21.2456 15.8776C21.0302 16.3932 20.7144 16.8609 20.3167 17.2533C19.5107 18.0544 18.4197 18.5028 17.2833 18.5C16.149 18.4992 15.0605 18.052 14.2533 17.255C13.857 16.8612 13.5423 16.393 13.3272 15.8774C13.1122 15.3617 13.001 14.8087 13 14.25C13 13.1217 13.45 12.0417 14.255 11.245C15.0615 10.4469 16.1504 9.9995 17.285 10C18.4217 10 19.5117 10.4483 20.3167 11.245C21.12 12.0417 21.5717 13.1217 21.5717 14.25Z" fill="white"/>
</svg>
