<svg width="60" height="60" viewBox="0 0 60 60" fill="none" xmlns="http://www.w3.org/2000/svg">
<circle cx="30" cy="30" r="30" fill="#73BA50"/>
<path d="M50 22.7838V39.2308C50 40.7609 49.3415 42.2283 48.1694 43.3102C46.9973 44.3922 45.4076 45 43.75 45H16.25C14.5924 45 13.0027 44.3922 11.8306 43.3102C10.6585 42.2283 10 40.7609 10 39.2308V22.7838L29.365 33.3023C29.5574 33.407 29.7767 33.4623 30 33.4623C30.2233 33.4623 30.4426 33.407 30.635 33.3023L50 22.7838ZM43.75 15C45.2879 14.9998 46.7718 15.5229 47.918 16.4694C49.0642 17.4159 49.7921 18.7192 49.9625 20.13L30 30.9692L10.0375 20.13C10.2079 18.7192 10.9358 17.4159 12.082 16.4694C13.2282 15.5229 14.7121 14.9998 16.25 15H43.75Z" fill="white"/>
</svg>
