<svg width="60" height="60" viewBox="0 0 60 60" fill="none" xmlns="http://www.w3.org/2000/svg">
<circle cx="30" cy="30" r="30" fill="#73BA50"/>
<path d="M49.1624 19.707C48.936 18.7986 48.4948 17.9762 47.8859 17.3272C47.2598 16.6583 46.4925 16.1798 45.6562 15.9368C42.5267 15.0093 29.9883 15.0093 29.9883 15.0093C24.7613 14.9424 19.5355 15.2365 14.3404 15.89C13.5042 16.1509 12.7383 16.6401 12.1107 17.3141C11.4942 17.9812 11.0476 18.8038 10.8143 19.7051C10.2538 23.1 9.98152 26.5472 10.001 30C9.98103 33.4497 10.2527 36.8957 10.8143 40.2948C11.0426 41.1924 11.4875 42.0113 12.1057 42.6728C12.724 43.3342 13.4939 43.812 14.3404 44.065C17.5117 44.9907 29.9883 44.9907 29.9883 44.9907C35.2221 45.0576 40.4545 44.7635 45.6562 44.11C46.4925 43.8671 47.2598 43.3885 47.8859 42.7196C48.4946 42.0707 48.9352 41.2482 49.1608 40.3398C49.7358 36.9462 50.0154 33.4977 49.9956 30.0431C50.0389 26.5739 49.7596 23.1091 49.1624 19.7051V19.707ZM26.0022 36.416V23.5858L36.4341 30.0019L26.0022 36.416Z" fill="white"/>
</svg>
