<svg width="426" height="891" viewBox="0 0 426 891" fill="none" xmlns="http://www.w3.org/2000/svg">
<g opacity="0.3">
<path d="M275.83 866.7C274.365 866.7 272.976 865.987 272.119 864.779L0.835101 479.396C-0.103621 478.06 -0.262188 476.329 0.416483 474.853L196.901 46.0777C197.58 44.5953 198.994 43.59 200.612 43.4436L668.368 0.0443522C669.979 -0.203788 671.552 0.610625 672.497 1.95313L943.781 387.329C944.72 388.665 944.878 390.396 944.2 391.872L747.721 820.66C747.043 822.136 745.628 823.142 744.011 823.294L276.248 866.687C276.109 866.7 275.969 866.7 275.83 866.7ZM9.77198 476.278L278.024 857.36L740.56 814.45L934.844 390.447L666.592 9.36556L204.062 52.2749L9.77198 476.278ZM743.592 818.752H743.706H743.592Z" fill="#373A36"/>
<path d="M274.2 865.719L199.121 473.605L198.753 44.9312L564.544 152.936L943.851 389.644L662.139 640.839L274.2 865.719ZM203.307 51.0265L203.624 473.172L277.46 858.567L659.494 637.162L936.29 390.28L562.406 156.97L203.307 51.0265Z" fill="#373A36"/>
<path d="M279.163 875.834C286.686 875.834 292.785 869.705 292.785 862.145C292.785 854.584 286.686 848.456 279.163 848.456C271.64 848.456 265.541 854.584 265.541 862.145C265.541 869.705 271.64 875.834 279.163 875.834Z" fill="#373A36"/>
<path d="M279.16 890.343C263.678 890.343 251.081 877.695 251.081 862.144C251.081 846.594 263.678 833.945 279.16 833.945C294.643 833.945 307.246 846.594 307.246 862.144C307.246 877.695 294.643 890.343 279.16 890.343ZM279.16 861.33L278.323 862.144C278.323 862.59 278.697 862.959 279.16 862.959V861.33Z" fill="#373A36"/>
<path d="M201.027 491.424C208.551 491.424 214.65 485.295 214.65 477.735C214.65 470.175 208.551 464.046 201.027 464.046C193.504 464.046 187.405 470.175 187.405 477.735C187.405 485.295 193.504 491.424 201.027 491.424Z" fill="#373A36"/>
<path d="M201.03 505.928C185.547 505.928 172.944 493.279 172.944 477.741C172.944 462.191 185.547 449.542 201.03 449.542C216.512 449.542 229.109 462.191 229.109 477.741C229.109 493.279 216.512 505.928 201.03 505.928ZM201.03 476.914L200.186 477.741C200.186 478.187 200.573 478.556 201.03 478.556V476.914Z" fill="#373A36"/>
<path d="M201.027 61.6717C208.551 61.6717 214.65 55.543 214.65 47.9827C214.65 40.4225 208.551 34.2937 201.027 34.2937C193.504 34.2937 187.405 40.4225 187.405 47.9827C187.405 55.543 193.504 61.6717 201.027 61.6717Z" fill="#373A36"/>
<path d="M201.03 76.1783C185.547 76.1783 172.944 63.5295 172.944 47.9793C172.944 32.4355 185.547 19.7866 201.03 19.7866C216.512 19.7866 229.109 32.4355 229.109 47.9793C229.109 63.5295 216.512 76.1783 201.03 76.1783ZM201.03 47.1649L200.186 47.9793C200.186 48.431 200.567 48.8001 201.03 48.8001V47.1649Z" fill="#373A36"/>
<path d="M743.592 823.308C743.085 823.308 742.571 823.231 742.076 823.053L385.425 696.756L2.31897 480.733C1.05043 480.02 0.194162 478.735 0.0292524 477.284C-0.13566 475.833 0.403472 474.383 1.47539 473.403L289.714 208.452L666.598 0.585673C667.841 -0.114213 669.331 -0.165113 670.651 0.420246C671.951 1.01197 672.902 2.17632 673.22 3.56973L757.66 375.947L748.133 818.854C748.102 820.317 747.372 821.666 746.173 822.506C745.406 823.04 744.505 823.308 743.592 823.308ZM12.239 475.872L389.167 688.484L739.184 812.364L748.685 376.857L665.691 11.4848L294.972 215.807L12.239 475.872Z" fill="#373A36"/>
<path d="M662.97 640.038L661.112 639.402L198.798 478.173L200.288 476.876L571.299 155.087L662.97 640.038ZM203.263 477.308L660.002 636.602L569.802 159.401L203.263 477.308Z" fill="#373A36"/>
<path d="M383.986 701.007L286.784 204.82L762.12 375.306L383.986 701.007ZM298.785 218.805L389.898 683.904L744.335 378.614L298.785 218.805Z" fill="#373A36"/>
<path d="M204.994 45.7468L197.066 50.2146L288.82 214.045L296.748 209.577L204.994 45.7468Z" fill="#373A36"/>
<path d="M282.99 864.601L275.328 859.69L383.11 689.999L390.772 694.911L282.99 864.601Z" fill="#373A36"/>
</g>
</svg>
